<svg width="60" height="60" viewBox="0 0 60 60" fill="none" xmlns="http://www.w3.org/2000/svg">
<circle cx="32" cy="32" r="26" fill="black" stroke="black" stroke-width="4"/>
<circle cx="28" cy="28" r="26" fill="white" stroke="black" stroke-width="4"/>
<g clip-path="url(#clip0_7_45)">
<path d="M38.71 29.41C38.77 28.96 38.8 28.495 38.8 28C38.8 27.52 38.77 27.04 38.695 26.59L41.74 24.22C42.01 24.01 42.085 23.605 41.92 23.305L39.04 18.325C38.86 17.995 38.485 17.89 38.155 17.995L34.57 19.435C33.82 18.865 33.025 18.385 32.14 18.025L31.6 14.215C31.54 13.855 31.24 13.6 30.88 13.6H25.12C24.76 13.6 24.475 13.855 24.415 14.215L23.875 18.025C22.99 18.385 22.18 18.88 21.445 19.435L17.86 17.995C17.53 17.875 17.155 17.995 16.975 18.325L14.11 23.305C13.93 23.62 13.99 24.01 14.29 24.22L17.335 26.59C17.26 27.04 17.2 27.535 17.2 28C17.2 28.465 17.23 28.96 17.305 29.41L14.26 31.78C13.99 31.99 13.915 32.395 14.08 32.695L16.96 37.675C17.14 38.005 17.515 38.11 17.845 38.005L21.43 36.565C22.18 37.135 22.975 37.615 23.86 37.975L24.4 41.785C24.475 42.145 24.76 42.4 25.12 42.4H30.88C31.24 42.4 31.54 42.145 31.585 41.785L32.125 37.975C33.01 37.615 33.82 37.135 34.555 36.565L38.14 38.005C38.47 38.125 38.845 38.005 39.025 37.675L41.905 32.695C42.085 32.365 42.01 31.99 41.725 31.78L38.71 29.41ZM28 33.4C25.03 33.4 22.6 30.97 22.6 28C22.6 25.03 25.03 22.6 28 22.6C30.97 22.6 33.4 25.03 33.4 28C33.4 30.97 30.97 33.4 28 33.4Z" fill="black"/>
</g>
<defs>
<clipPath id="clip0_7_45">
<rect width="36" height="36" fill="white" transform="translate(10 10)"/>
</clipPath>
</defs>
</svg>
