<svg width="60" height="61" viewBox="0 0 60 61" fill="none" xmlns="http://www.w3.org/2000/svg">
<circle cx="32" cy="32.54" r="26" fill="black" stroke="black" stroke-width="4"/>
<circle cx="28" cy="28.54" r="26" fill="#FFB6B6" stroke="black" stroke-width="4"/>
<g clip-path="url(#clip0_23_33)">
<path d="M28 21.54V17.54L23 22.54L28 27.54V23.54C31.31 23.54 34 26.23 34 29.54C34 32.85 31.31 35.54 28 35.54C24.69 35.54 22 32.85 22 29.54H20C20 33.96 23.58 37.54 28 37.54C32.42 37.54 36 33.96 36 29.54C36 25.12 32.42 21.54 28 21.54Z" fill="black"/>
<path d="M28 21.04C29.331 21.04 30.6435 21.3526 31.8316 21.9526C33.0198 22.5526 34.0504 23.4233 34.8405 24.4945C35.6306 25.5656 36.1581 26.8074 36.3805 28.1197C36.6029 29.432 36.514 30.7783 36.121 32.0499C35.7279 33.3216 35.0418 34.4833 34.1177 35.4412C33.1936 36.3992 32.0574 37.1268 30.8007 37.5654C29.544 38.0039 28.2019 38.1413 26.8824 37.9662C25.5629 37.7912 24.3029 37.3088 23.204 36.5578" stroke="black" stroke-width="3"/>
<path d="M28 22.54C28.9964 22.54 29.9814 22.7528 30.8889 23.164C31.7965 23.5752 32.6059 24.1755 33.2629 24.9246C33.9199 25.6738 34.4093 26.5545 34.6986 27.508C34.9878 28.4616 35.0702 29.4658 34.9401 30.4537C34.8101 31.4416 34.4706 32.3904 33.9444 33.2365C33.4182 34.0827 32.7175 34.8067 31.889 35.3603C31.0605 35.9139 30.1234 36.2842 29.1403 36.4465C28.1572 36.6089 27.1507 36.5594 26.1883 36.3015" stroke="black" stroke-width="6"/>
<rect x="16.8529" y="29.1609" width="9" height="13" rx="2.5" transform="rotate(-30 16.8529 29.1609)" fill="#D9D9D9" stroke="#FFB6B6"/>
<rect x="18.9019" y="29.7099" width="6" height="10" rx="1" transform="rotate(-30 18.9019 29.7099)" fill="#FFB6B6" stroke="black" stroke-width="2"/>
</g>
<defs>
<clipPath id="clip0_23_33">
<rect width="24" height="24" fill="white" transform="translate(16 16.54)"/>
</clipPath>
</defs>
</svg>
