<svg width="137" height="59" viewBox="0 0 137 59" fill="none" xmlns="http://www.w3.org/2000/svg">
<rect x="34" y="25" width="16" height="12" fill="black"/>
<path d="M10.6754 40.1036L6.68099 45H13H20.2H21.6462L22.547 43.8686L27.6616 37.4446L32.5838 43.8313L33.4845 45H34.96H42.04H47.2656H48.2306H50.2656H56.1456H59.1456V42V25.14H63.5256H64.7467V43.92V50.9678L69.8263 46.0822L82.0267 34.3478V42V45H85.0267H90.9067H93.9067V42V14.46V7.41217L88.8271 12.2978L76.6267 24.0322V16.74V13.74H73.6267H67.7467H66.5256H64.7467H63.5256H45.3813H42.8856H39.8856H39.54H33.34H31.8569L30.9564 14.9184L27.7128 19.1627L24.513 14.9307L23.6127 13.74H22.12H14.16H7.60554L11.8894 18.7007L20.2436 28.3749L10.6754 40.1036ZM44.3946 40.1411L34.9935 28.2329L39.8856 21.4074V22.14V25.14H42.8856H47.2656V42V43.7776L44.3946 40.1411ZM98.3327 13.74H95.3327V16.74V42V45H98.3327H110.153C112.991 45 115.6 44.3211 117.752 42.7352L117.771 42.7215L117.789 42.7075C120.422 40.7045 121.733 37.8766 121.733 34.56C121.733 31.8086 120.809 29.3329 118.771 27.4802L118.753 27.4639L118.735 27.4479C118.622 27.3492 118.509 27.2533 118.394 27.1601C119.051 25.9024 119.333 24.5189 119.333 23.1C119.333 20.1892 118.138 17.7031 115.859 15.8915L115.832 15.8698L115.804 15.8487C113.754 14.2953 111.084 13.74 108.233 13.74H98.3327ZM124.876 13.74H121.876V16.74V42V43.5875L123.188 44.4805L129.068 48.4805L133.756 51.6692V46V16.74V13.74H130.756H124.876Z" fill="black" stroke="black" stroke-width="6"/>
<path d="M13 40L24.16 26.32L14.16 14.74H22.12L27.7 22.12L33.34 14.74H39.54L31.24 26.32L42.04 40H34.96L27.7 30.58L20.2 40H13Z" fill="white"/>
<path d="M63.5256 20.14H56.1456V40H50.2656V20.14H42.8856V14.74H63.5256V20.14Z" fill="white"/>
<path d="M67.7467 14.74H73.6267V29.08L90.9067 12.46V40H85.0267V25.3L67.7467 41.92V14.74Z" fill="white"/>
<path d="M98.3327 14.74H108.233C110.753 14.74 112.673 15.24 113.993 16.24C115.553 17.48 116.333 19.1 116.333 21.1C116.333 23.38 115.333 25.02 113.333 26.02C114.613 26.26 115.753 26.82 116.753 27.7C118.073 28.9 118.733 30.52 118.733 32.56C118.733 35 117.813 36.92 115.973 38.32C114.453 39.44 112.513 40 110.153 40H98.3327V14.74ZM104.213 24.58H107.213C108.253 24.58 109.033 24.4 109.553 24.04C110.313 23.56 110.693 22.88 110.693 22C110.693 21.16 110.353 20.5 109.673 20.02C109.193 19.7 108.333 19.54 107.093 19.54H104.213V24.58ZM104.213 35.2H108.593C109.913 35.2 110.933 34.96 111.653 34.48C112.453 33.96 112.853 33.22 112.853 32.26C112.853 31.22 112.473 30.48 111.713 30.04C111.033 29.6 110.053 29.38 108.773 29.38H104.213V35.2Z" fill="white"/>
<path d="M124.876 14.74H130.756V44L124.876 40V14.74Z" fill="white"/>
</svg>
